<svg xmlns="http://www.w3.org/2000/svg" viewBox="0 0 111.16 109.98"><defs><style>.cls-1{fill:#c1272d;}.cls-2{fill:#202020;}</style></defs><title>Asset 1</title><g id="Layer_2" data-name="Layer 2"><g id="Layer_11" data-name="Layer 11"><polygon class="cls-1" points="11.91 20.32 22.91 11.32 53.91 36.33 80.92 11.32 95.92 23.32 67.92 55.33 99.92 83.33 83.92 98.33 51.91 69.33 47.91 69.33 22.91 94.33 7.92 82.33 38.91 47.33 11.91 20.32"/><path class="cls-2" d="M76.46,21.54l-.7.63.14.13Z"/><path class="cls-2" d="M75.6,19.17l-.23.19a1,1,0,0,1,.15.08A1.38,1.38,0,0,1,75.6,19.17Z"/><path class="cls-2" d="M75.9,22.3c.53.49,1.3.76,1.42,1.62l-1.57,1.39c-.13.64.52.59.78.88-.39.35-.78.7-.65.84.08.61.73.49,1.57-.09C77.68,23.8,81.46,19.4,75.9,22.3Z"/><path class="cls-2" d="M78,18.36l-2.06,1.83c.09.52.09,1.12.6,1.27A7.7,7.7,0,0,0,78,18.36Z"/><path class="cls-2" d="M81.27,58.53c-.09.08-.17.1-.37-.35l.37.35c.08-.08.17-.21.39-.1a42.86,42.86,0,0,1-4.49-3.85l-1-.12c3.51,3.61,7.18,7.11,11,8.92-1.1-.94-2.09-1.67-3.07-2.39S82.28,59.49,81.27,58.53Z"/><path class="cls-2" d="M75.06,55l-.35-.37C74.89,55.06,75,55.05,75.06,55Z"/><path class="cls-2" d="M62.53,86.52A35.25,35.25,0,0,0,59,83.61c-1.72-1.38-3.4-2.73-5.1-4.08l4.85,4.63,3.24,3C64.13,89,66.14,90.8,68,92.21Q65.23,89.41,62.53,86.52Z"/><path class="cls-2" d="M48.7,63a87,87,0,0,0-7.13,7c2.14,2,4.27,3.92,6.32,5.65l-5.62-5.64,5.65-5.88Z"/><path class="cls-2" d="M44.83,68.5c-.55.54-1.08,1.08-1.56,1.57a119.93,119.93,0,0,0,10.66,9.46c-3.32-3.16-6.78-6.36-10.34-9.45C44.05,69.52,44.45,69,44.83,68.5Z"/><path class="cls-2" d="M89,83c-1.16-.36-1.56-.41-1.74-.5a9,9,0,0,0-1.23.22l0,0a5,5,0,0,1,1.65.4.2.2,0,0,1,0,.08,6.86,6.86,0,0,1,.71.48c.24-.17.48-.35.7-.54Z"/><path class="cls-2" d="M87.23,82.47a9,9,0,0,0,1.21-.14c.08,0-.1-.08-.34-.1C87.61,82.2,86.92,82.34,87.23,82.47Z"/><path class="cls-2" d="M97.51,90.93l-.3.28-.77.91Z"/><path class="cls-2" d="M78,89.54c1.06,1,2.12,1.95,3.13,2.75-1-.93-2-1.86-3.13-2.82-1.49-1.38-3-2.66-4.37-3.74.36.38.58.9.93,1.28A12.62,12.62,0,0,1,78,89.54Z"/><path class="cls-2" d="M98.13,78.58l5.68,4.76-6.6,7.87c-1.12,1.08-2.22,2.15-3.33,3.21l-3.35,3.31c-2.23,2.23-4.46,4.49-6.71,6.86-2.11-2-4.25-4-6.48-6l-3.41-3c-.56-.47-1.25-1.08-1.67-1.4L70.83,93.1c-3-2.17-6.42-5.42-10.06-8.75L59.4,83.1l-1.9-1.8-4-3.74c-2.73-2.5-5.55-5-8.5-7.45,1.15-1.57,2.19-3.11,3.08-4.61-1.16,1-2.24,2-3.24,3q1.68-2.2,3.09-4.33l6.24-6.46,3-3.08,1.77-1.89,7.14-7.48c4.79-5,9.67-9.89,14.72-14.84,1.5-1.47,2.21-3,3.71-4.46l4.11-4.19a.39.39,0,0,0-.1-.08c.24-.41.36-.75.26-1a2.6,2.6,0,0,0-.7-.15c-.07,0-.08.11-.1.19s0,.08,0,.13v.14h0L87.86,21l-.26-.22c-.06,0,0,0,0,0l0,.07a.76.76,0,0,0,.08.11,1.62,1.62,0,0,0,.2.18.13.13,0,0,0,0-.09h0A5.07,5.07,0,0,0,87.66,20a1.47,1.47,0,0,0-1.13-.73l-.18,0h-.09s-.19.11-.28.16l-1.27.82c-.86.57-1.75,1.2-2.7,1.91l-.39-.44a8.63,8.63,0,0,1-1.42,1.26c.23-3.13,4-7.53-1.55-4.63h0l.57-.76.08-.07h0a7.8,7.8,0,0,0,1.46-3.11l-2.06,1.84a1,1,0,0,0-.41-.75c0-.09,0-.18.08-.27l.56-.5a1.81,1.81,0,0,0-.07-.54c.31-.56.7-1.15,1.09-1.73L81,10.76c.67-1,1.14-1.85.66-2s-2,1.66-3.25,3.15a1.73,1.73,0,0,0-.43.12c1.84-1.9-.93-1,.16-2.23,1.85-1.65,3.63-3.5,5.53-5.19L87.91.86c3,2.62,5.88,5.08,8.93,7.63l4.57,3.76,5,4,1.13.92c1.24,1,2.46,2,3.62,3q-3.68,3.78-7.67,7.48c.1-.29.21-.57.33-.86-1.5,1.38-3,2.75-4.37,4.16l-1,1-.83.87c-.55.59-1.08,1.19-1.6,1.8-5.07,6.06-10.13,12.13-16,18.14-3.08,3.13-6.06,6.25-9,9.42l-2.2,2.4-1.1,1.2-.56.68c-.73.9-1.4,1.77-2,2.59a24.24,24.24,0,0,1,1.44-2.24c.28-.4.59-.81.92-1.22.6-.68,1.24-1.37,1.88-2,1.21-1.16,2.41-2.32,3.54-3.49-1.24,1.13-2.41,2.3-3.54,3.49L66.87,66c-.55.52-1.08,1-1.58,1.58a8.07,8.07,0,0,0-2,3,12.32,12.32,0,0,0,2.13,1c0,.2-.26.24-.09.42.6.65,1.17,1.32,1.8,1.92a8,8,0,0,0,1,.81,20.63,20.63,0,0,0,2,1.46c.15-.13,1.22,1,1.15.37,2.29,2.16,4.8,4.84,7.23,6.87a18.1,18.1,0,0,0,3.49,2.32c.13.12.13.11.17.13l.09.05.19.09.35.17c.23.1.44.18.64.25a3.43,3.43,0,0,0,1,.22,7.46,7.46,0,0,0,.77-2.08l0-.18a.18.18,0,0,1,0-.1l.44-.5a1.08,1.08,0,0,0,0-.28.6.6,0,0,0-.33-.35.88.88,0,0,0-.17-.06H85a2.4,2.4,0,0,1,1,0,.77.77,0,0,1,.57.84,2.42,2.42,0,0,0-.39.27l-.58.56-.12.19a5.91,5.91,0,0,0-.37,1.55,8.13,8.13,0,0,1-.33,1,15.72,15.72,0,0,0,1-1.87l.15-.38,0-.09,0,0,.14-.17.3-.35,0-.08a3.17,3.17,0,0,0,.11-.61,8.51,8.51,0,0,0,1.12-.76l0,0a1.51,1.51,0,0,1,0,1,5.9,5.9,0,0,0-.52.41l-.23.21-.1.11,0,.06,0,0-.11.11-.24.26-.13.12,0,0-.08.13-.15.31a5.45,5.45,0,0,0-.27.81l-.13.53a10.45,10.45,0,0,1-.42,1.12c.35-.51.65-1,.92-1.43l.37-.64a3.08,3.08,0,0,1,.67-.93,6.86,6.86,0,0,0,.51-1.25l.72-.51.12.1a9.67,9.67,0,0,0,1.12.85c.57.39,1.16.82,1.75.67.68-.67,1.37-1.41,2-2.1-1.3-1.11-2.56-2.1-3.43-2.77-.42-.34-.78-.61-1-.8l-.26-.23c-.06-.06-.18-.19-.15-.19s.06-.07.15-.06l.15,0H89a3,3,0,0,1,.7.26,20.16,20.16,0,0,1,2.15,1.29c1.61,1.07,3.41,2.45,3.45,2.34-.2-.31-.42-.64-.67-1L96.2,83l.3.23c-.55.67-1.53,1.43-1.56,2a8.33,8.33,0,0,1-2,3.22L91.33,90.2l-.26.29-.2.24-.38.49q-.37.5-.75,1c-1.19,1.94-2.91,4.64-5.11,7.81,0,.35-.48.81-.71,1.14-.12-.06-.17,0-.06.3C81.8,99.31,79.53,96.89,78,97l-.18-.15a3.63,3.63,0,0,0-.7-.52,36,36,0,0,0-2.69-2.78c-.87-.81-1.63-1.41-2.46-2-1.64-1.25-3.32-2.38-5.12-3.75-1.12-1.06-2.24-2.15-3.33-3.32a22.64,22.64,0,0,0,2.51,2.68l.82.64c1.45,1.36,2.92,2.65,4.39,3.9l2.2,1.86,2.45,2.14c.32.16.81.42,1.23.68l.61.71A1.26,1.26,0,0,1,78,97c2.07,1.64,4.1,3.5,5.86,5,.83-1,1.59-1.88,2.25-2.75a81.36,81.36,0,0,1,6.21-6.44c2.15-2,4.35-4,6.54-6l-5.51,6.68c2.49-2.82,4.73-5.41,6.61-7.69l1.09-1,1.51-1.43-.71-.71.59.71L101,84.57l1-1.26c-1.12-.89-2.18-1.73-3.22-2.51-2-1.65-3.81-3.2-5.56-4.71l-1.39-1.23-1.49-1.34-2.91-2.66-1.47-1.17L84.35,68.4l-3.14-2.62a72.72,72.72,0,0,1-5.84-5.67,8.76,8.76,0,0,1,1,0A49.24,49.24,0,0,0,88,69c-2.25-1.93-4-3-6.24-4.85a.28.28,0,0,1,.39-.11,41.64,41.64,0,0,1-4.74-3.81c.83.11,1.71.27,2.59.43a32,32,0,0,1,3.47,2.39c1.33,1,2.63,2.07,3.91,3.11l1.9,1.55a12.32,12.32,0,0,1,1,.92l.9.85,3.59,3.39c1.31,1.23,2.75,2.54,4.22,3.85l6.51,6.64c-2.74,2.56-5.4,5.07-8,7.57,2.5-2.81,4.69-5.33,6.56-7.59C102,81.6,100,80,98.13,78.58ZM85.68,13.12l.67-1-.14-.06A2.15,2.15,0,0,0,85.68,13.12Zm5.31,1a6.77,6.77,0,0,0-.63-.69,10.44,10.44,0,0,0-.77-.71c-.54-.46-1.11-.9-1.68-1.3-.8.86-1.59,1.77-2.32,2.59a.85.85,0,0,0,0,.17A17.58,17.58,0,0,0,87.91,12Zm.77,6.12.07,0-.12,0ZM59.51,61.47c.7-1,1.74-2.3,2.37-3.12s1.52-1.84,2.35-2.77c1.66-1.87,3.46-3.77,5.2-5.75,1.12-1.1,1.69-2.76,3.19-4.23,1.74-2,2.58-3.35,3.95-5l-1.4.82c2.76-2.43,3.43-4.73,6.33-7-.14-.14,0-.79.33-1.15,1.74-2,3.88-3.54,5.11-5.28.86-1,1.77-1.94,2.6-2.86l.62-.69.29-.34a2.24,2.24,0,0,0,.21-.26,2.58,2.58,0,0,0,.23-.55c.13-.13-.13-.69-.13-1,.17-.28.35-.53.52-.77h-.21a1.16,1.16,0,0,0-.4.6,6.52,6.52,0,0,1-.5,1.28c-1.1,1.31-2.21,2.61-3.27,3.78C81.56,33,76.87,38.7,72.18,44.4c-1,1.24-1.84,2.62-2.83,3.86-2.83,3.87-7,7.74-8.38,11C60.62,59.83,59.66,60.78,59.51,61.47Zm4.62,7.35a17.56,17.56,0,0,1,1.23-2c.25-.35.51-.7.79-1l.42-.54.22-.27.34-.38c1.93-2.14,3.92-4.16,5.84-5.93,3-2.94,10.78-12.22,7.64-12.42-.36,3.33-6.54,9.42-11.9,14.75l-2,1.95-.93.94-.66.69a21.27,21.27,0,0,0-2,2.37C62.22,68.31,62.42,68.92,64.13,68.82ZM83.74,88a2.76,2.76,0,0,1-1.66-.91C82.71,87.46,83.26,87.77,83.74,88ZM67.42,82.22a100.58,100.58,0,0,1,8.18,6.7l1.9,1.7L79.05,92c1,.85,2,1.65,2.88,2.34a18.6,18.6,0,0,1,2.14,2c1-1,2.08-1.91,3.07-2.94A11.71,11.71,0,0,0,89.55,90l-.36-.46-.12.38a21.87,21.87,0,0,1-2.38,1.44l.09-.16-.18.22a5,5,0,0,0-1.39,1.35l-.71,1-.37.41c-1.3-1.15-2.69-2.39-4.21-3.63-1.24-.92-4-3.3-6.28-4.89-2.93-2.28-5.79-3.91-8.73-6.19A22.7,22.7,0,0,0,67.42,82.22Z"/><path class="cls-2" d="M100.17,85.26l1.62-2-3-2.51c-1.43-1.1-2.81-2.1-4.12-3-.75-.56-1.47-1.13-2.17-1.7-.31-.25-.79-.67-1.2-1L90,74l-2.51-2.3c-.24-.21-.36-.35-.55-.49l-.56-.45L85,69.59c-1.83-1.51-3.68-3-5.49-4.56s-3.51-3.18-5.2-4.75a1.81,1.81,0,0,0-1.25,1.25A62.56,62.56,0,0,0,78.42,67c1.93,1.67,3.9,3.28,5.88,4.88l.74.6.34.27-.06,0,0,0,.06,0,.11.09a1.81,1.81,0,0,1,.21.18l.33.31.67.63,2.66,2.54,2,2c.54.54,1.06,1.09,1.56,1.64l.16.08a20.42,20.42,0,0,1,4.28,3,40.28,40.28,0,0,0-4,5q-.36.63-.78,1.29l-.44.67-.23.34-.3.4c-.68.93-1.35,1.83-2.1,2.79-1.49,1.92-3.13,4-5,6.35,2.66-2.53,5.22-5.09,7.72-7.55S97.33,87.7,100.17,85.26Z"/><path class="cls-2" d="M47.89,75.69l7.5,7.49,1.3,1.26.59.57.4.36,1.57,1.39,3.07,2.68c2,1.75,4.05,3.42,6.1,5.1q-4.07-4.11-8.07-8.39c-.71-.67-1.42-1.29-2.15-1.87l-1.55-1.34L55,81.54C52.74,79.68,50.37,77.79,47.89,75.69Z"/><path class="cls-2" d="M72.21,97.73,71,96.67l-.3-.27-.21-.17-.42-.34-1.66-1.35L83.65,110l1.63-1.63,6.43-6.8,3.07-3.27,1.5-1.6,1.29-1.39c3.92-4.2,7.59-8.18,10.89-11.89l-3.45-3c-1.09-.94-2.13-1.86-3.14-2.76l5.6,5.71c-8.37,7.8-15.84,14.87-23.71,23-2.56-2.5-5.14-5-7.83-7.41-1.33-1.21-2.73-2.47-4.1-3.67Q70.24,94,68.65,92.74L68,92.21l7.29,7.44,8.46,8.54L87,104.9l-3.27,3.49Z"/><path class="cls-2" d="M98.9,86.78l1.1-1,1-1.2-.8.69Z"/><path class="cls-2" d="M86.69,91.38l-.09.06c-.66.78-1.37,1.58-2.1,2.4l-.37.52a22.74,22.74,0,0,1-3-2.07c1,1,2.06,1.88,3,2.61A25.64,25.64,0,0,0,86.69,91.38Z"/><path class="cls-2" d="M83.18,85.9l-.29-.31c-.12,0-.24.09-.37.12l.21.28A3,3,0,0,0,83.18,85.9Z"/><path class="cls-2" d="M65.42,71.55c1,.74,1.83,1.39,2.63,2l.58.41.14.1.07,0,.16.14.63.57L72.12,77l9.8,8.72.14.07h.2l.26-.06-.16-.2-.72-.78-1.49-1.57c-1-1-2-2-3-3a64.18,64.18,0,0,0-6.41-5.31c-.43-.31-1-.66-1.6-1a1.4,1.4,0,0,1-.72-.3c-1-.93-2.38-1.83-4-3,.21-.44.46-.9.75-1.41-.36.48-.69.95-1,1.4l1.22,1Z"/><path class="cls-2" d="M33.79,44.56l.69.74.13-.15Z"/><path class="cls-2" d="M31.41,45.45l.21.23a.8.8,0,0,1,.08-.16Z"/><path class="cls-2" d="M34.62,45.15c.47-.54.7-1.34,1.58-1.45l1.52,1.62c.66.14.57-.53.85-.8.38.41.76.82.91.68.62-.08.46-.75-.19-1.63C36.05,43.32,31.32,39.39,34.62,45.15Z"/><path class="cls-2" d="M30.44,43l2,2.14c.53-.09,1.14-.09,1.27-.61A8.28,8.28,0,0,0,30.44,43Z"/><path class="cls-2" d="M49.55,74.17c-.08-.09-.1-.17.38-.41l-.38.41c.08.08.22.17.09.4,1.19-1.55,2.62-3.32,4.1-4.95,0-.35.1-.69.12-1-3.71,4-7.5,7.91-9.85,11.83C46.21,78.17,47.47,76.37,49.55,74.17Z"/><path class="cls-2" d="M53.31,67.48l.38-.41C53.21,67.31,53.22,67.39,53.31,67.48Z"/><path class="cls-2" d="M26.52,55.94A54.46,54.46,0,0,0,32,48.3C28,53.17,23.55,58,20.67,61.9,22.6,59.91,24.54,57.92,26.52,55.94Z"/><path class="cls-2" d="M39.72,37l-.33.18,0,0h0l-.06.06-.27.26-.52.51c-.67.68-1.29,1.36-1.86,2a46.51,46.51,0,0,0-3.06,4.16l3.34-3.7,1.67-1.84.83-.92.21-.23a.25.25,0,0,0,.07-.09l.1-.14A3.4,3.4,0,0,0,39.72,37Z"/><path class="cls-2" d="M38.3,40.12A45.33,45.33,0,0,0,32,48.3,94.71,94.71,0,0,0,38.3,40.12Z"/><path class="cls-2" d="M22.73,83.67c.33-1.15.37-1.55.45-1.73a7.19,7.19,0,0,0-.31-1.15l0,0a5.15,5.15,0,0,1-.43,1.84l-.12.45-.32.55.3.43A5.57,5.57,0,0,0,22.73,83.67Z"/><path class="cls-2" d="M23.18,81.94a8.71,8.71,0,0,0,.22,1.14c.05.08.09-.1.09-.33C23.5,82.27,23.31,81.63,23.18,81.94Z"/><path class="cls-2" d="M15.21,93.39,14.87,93l-.55-.53-.44-.4C14.19,92.36,14.76,92.94,15.21,93.39Z"/><path class="cls-2" d="M23.46,72.07c-1.5,1.61-3,3.28-4.35,4.92a123.14,123.14,0,0,0,8.26-9.66c-.39.39-.92.65-1.32,1A14.16,14.16,0,0,1,23.46,72.07Z"/><path class="cls-2" d="M28.07,91.93,21.89,99.5l-3.27-3-1.7-1.56L14.87,93,10,87.61c-.83-.92-1.66-1.82-2.49-2.73L5.09,82.23c2.79-3,5.51-6,8.25-9.19l1-1.16.82-1,1.59-2c1-1.32,2.05-2.65,3-4C25,57.51,36.25,46.76,40.33,38.25c-.73.62-1.41,1.24-2,1.87.36-.56.71-1.11,1-1.65l.47-.81c0-.12,0-.23,0-.35l1.42-2.1L39.72,34l-.65-.51-2.8-2.77q-2.88-2.88-5.78-5.8l-5-5.13c-.29-.3-.74.08-.91-.09a4.22,4.22,0,0,0-.37-.29l-.21.23c0,.06,0,.11,0,.16a5.36,5.36,0,0,0-.39.58,1.65,1.65,0,0,0-.14.26l0,0s0,0,0,0l-.14.13-.55.5-.27.25c-.07.07,0,0-.05.06l0,.06c-.1.31-.05.54.24.62a1.54,1.54,0,0,0,.36,0c.12,0,.1,0,.08,0h0s0,0,0,0l.14.15.28.31,2.26,2.46c1.14,1.22.57,1.76,1.18,2.7a84.26,84.26,0,0,0,7.16,10.83l-.43.4A10.11,10.11,0,0,1,35,40.71c-3.24-.25-8-4.18-4.67,1.58h0l-.81-.59-.08-.08v0a8.51,8.51,0,0,0-3.27-1.53l2,2.14a1,1,0,0,0-.74.42l-.29-.08L26.59,42a1.82,1.82,0,0,0-.55.08c-2.36-1.29-5.42-3.94-5.49-2.82.1.72,1.64,1.84,3.27,3.22a1.91,1.91,0,0,0,.15.44c-2-1.9-1,.94-2.28-.15C20.17,41.14,18.5,39.65,17,38l-3.62-3.84-4-4.12c-2.84-2.93-5.72-5.84-8.89-9l4.54-4.26c.35-.34.71-.66,1.06-1,2-1.83,4-3.63,6-5.39L14.9,8.07,18,5.52l-.66,1.06C20,4.48,22.53,2.38,25.13,0c.6.58,1.21,1.14,1.83,1.69L38.28,11.81c3.18,2.83,6.36,5.76,9.52,8.89l6.88,6.83,8,7.86c-3.86,4.14-7.84,8.45-12.08,13.1C54.44,44.07,57.94,40,61.74,36l.64-.63c-1.54-1.62-3.08-3.22-4.63-4.77,1.49,1.63,3,3.2,4.6,4.77l-.61.63c-3.52,3.46-7.05,6.88-10.22,10.28l-1.18,1.28-.29.32-.2.23-.38.46c-.51.62-1,1.23-1.44,1.85a23.73,23.73,0,0,0-2.3,3.74c-.52.29-.65.15-1,.54C41.93,57.48,39,60.09,37.23,63c.14.14-1,1.32-.38,1.2-2.22,2.5-5,5.26-7.06,7.89a20.24,20.24,0,0,0-2.38,3.75l-2.9,3.45L23.12,81l-.19.46a3.32,3.32,0,0,0-.27,1.38,8.15,8.15,0,0,0,.85.37l.18.07h0s0,0,0,0L23.55,83l-.68-.86-.7-.87-.35-.44-.18-.22-.07-.09.05,0,.82.79L24.11,83l.2.2.11.1,0,0s.05,0,0,0L24,82.74l-1-1.29-.51-.66-.26-.33c-.06-.08,0-.07,0-.07h0l.06-.07a.51.51,0,0,0,.09-.18l0-.14c0-.11,0-.11,0-.12a2.41,2.41,0,0,1,0,1.32.65.65,0,0,1-.28.31.62.62,0,0,1-.19.07l-.12,0h0l.17.22.34.47,1.41,1.53.16.18-.15-.17-.28-.34-.58-.67-1.16-1.3-.29-.32L21.21,81c-.05,0-.14-.15,0,0l1,1.19,1,1.17c0,.06-.07,0-.11,0l-.36-.15-1.09-.37-.2-.08a1.08,1.08,0,0,1-.2-.4c-.06.14-.1.27-.14.39l.87.57.41.23.09.06.05,0-.19-.25-.88-1.11L21,81.72l-.22-.28-.06-.08,0,0,0,0,.08.07.62.6,1.25,1.18.62.59.31.3.07.06-.07-.09-.14-.19-1.18-1.59-.36-.4-.18-.19s0,0,0,0l.08.13.16.28a5.21,5.21,0,0,0,.36.55l.12-.11v.08l-.11.27a1.46,1.46,0,0,1-.86-.06l-.1-.15s-.05-.06,0,0l.13.14.26.29,1,1.13.25.29.06.07,0-.05-.13-.15-.52-.58-1-1.13-1-1.07c.47.59.92,1.17,1.38,1.74l.29.4-.09,0-.22-.1-.49-.21-.59-.23q-.48-.21-1-.48v-.12l-.06.12c.5.39,1,.74,1.43,1.05l.33.23-1-1.25-.49-.63,0,0,0,0,0,.05.11.1.21.2.84.81,1.1,1,.55.53.07.06-.05-.07-.1-.14-.2-.28-.84-1.17-.21-.3-.1-.13h0l.13,0,.53.79-.09.13A11.24,11.24,0,0,0,21.13,85,2.66,2.66,0,0,0,20.57,87c.51.56,1.05,1.13,1.59,1.66,1.27-1.49,2.45-3,3.25-4.06l.54-.71.22-.29.44-.5a6.58,6.58,0,0,1,.95-1c.24,0-.18.77-.93,1.84a20.8,20.8,0,0,1-1.31,2.23c-1.09,1.67-2.51,3.57-2.39,3.59.34-.22.69-.48,1.05-.75l-.9,1.65a12.59,12.59,0,0,1-1,1.19c-.46-.49-.9-1-1.23-1-.92-.16-2.31-1.44-2.66-1.63-.87-.77-3.45-3.57-3.78-3.35-1.25-.9-2.78-2-4.66-3.46a25.39,25.39,0,0,1,1.31-2.62c-.46-.1.94-1.22.12-1,1.13-1.13,2.33-2.33,3.28-3.48a13.58,13.58,0,0,0,1.2-1.68,3.74,3.74,0,0,0,.52-1.46l.14-.18a3.65,3.65,0,0,0,.51-.73c3.84-3.55,5.65-6.9,8.47-10.78,1.08-1.23,2.21-2.45,3.41-3.65A26.54,26.54,0,0,0,26,59.62c-.23.3-.44.59-.66.89C22.49,63.68,20,66.89,17.48,70c-.15.31-.39.82-.65,1.26l-.65.59a1.71,1.71,0,0,1,0,.32l-.91,1.18-1,1.26-2,2.4A50.67,50.67,0,0,0,9,81.24l-.89,1.09c1.09,1.07,2.1,2.12,3.07,3.18l1.4,1.54L14,88.62l2.78,3.3,2.74,3.28-6.76-6.13L16.87,93c1.32,1.25,2.52,2.35,3.67,3.4l1,1.2.34.39,1.92-2c-.65.56-1.29,1.13-1.91,1.69l-.18-.23.18.16c1.34-1.69,2.59-3.3,3.73-4.84q1.24-1.5,2.49-3c.82-1,1.63-2,2.45-2.93,1.85-2.14,3.73-4.28,5.64-6.39C40.05,76.23,44,72.1,48,68.15a7.36,7.36,0,0,1,0,1c-3.7,4-7.49,7.9-9.84,11.83,2.19-2.26,3.45-4.06,5.53-6.27a.3.3,0,0,1,.1.41c1.19-1.55,2.61-3.32,4.1-5-.13.86-.32,1.78-.51,2.69a24.61,24.61,0,0,1-2.67,3.61c-2.4,2.71-4.8,5.27-7.17,7.84L34,88.21l-1.81,2-2,2.31c-2.8,2.83-5.59,5.66-8.32,8.44l-6.64-7.6,2,1.94,1.64,1.57,3.07,2.88C24.17,97,26.23,94.37,28.07,91.93ZM22.84,33.07,21.44,32l.08.29A3,3,0,0,0,22.84,33.07Zm-7.22-8a11.52,11.52,0,0,0,1.11,1.37c.49.52.76.77,1.75,1.74,1.68,1.64,3.5,3.32,5.27,5a.26.26,0,0,0,.14-.07c-1.32-1.55-2.93-3.16-4.63-4.79L18,27.08l-.77-.65Zm4.25-4.19h-.08l.09,0ZM47.41,38.44a18.37,18.37,0,0,1,2-3.16c-1.8-1.51-3.44-3.06-5.13-4.47a5,5,0,0,0-1.43-.92A13.57,13.57,0,0,1,40.54,28c-2.07-1.86-3.51-2.79-5.2-4.25l.88,1.47c-2.57-2.94-5-3.72-7.39-6.79-.14.13-.81,0-1.2-.39a7.28,7.28,0,0,1-1.14-1.15,2.45,2.45,0,0,0-1-.84c-.38-.26-.73-.55-1.06-.79a7,7,0,0,0-1,1.34A9.45,9.45,0,0,0,23,18c-.25.32-.49.59-.73.86l.13.1a2.26,2.26,0,0,0,.56-.67,16.39,16.39,0,0,1,1.43-2.18,7.36,7.36,0,0,1,.8.48c.48-.07,8.63,7.22,14.17,11.83.65.53,1.34,1,2,1.53l.51.37.26.19.15.09c.21.11.41.24.61.37a25.17,25.17,0,0,1,2.73,2c.93.76,1.86,1.53,2.9,2.27a4,4,0,0,0-.61,1.85C47.85,37.45,47.29,38,47.41,38.44Zm2.78,9.22C53.76,43.3,57.37,39.18,61,35.38c-2-1.94-3.76-3.79-5.41-5.58a86.42,86.42,0,0,0-9.18-8.22C43.57,19.49,41.1,18.2,41,19.82c1.78.26,4.36,2.14,7.21,4.7,3.41,3.14,7.34,7.2,10.9,10.84C55.81,38.73,52.82,41.79,51,44a9.8,9.8,0,0,0-1.71,2.7.63.63,0,0,0,.09.7A.86.86,0,0,0,50.19,47.66ZM21.78,81.15a5,5,0,0,1,.41-1l0-.06.09-.11.29-.35.61-.68c.42-.47.86-.93,1.33-1.4L23.36,79l-.58.69-.3.34-.14.18,0,.06C22.11,80.55,21.93,80.86,21.78,81.15ZM31,60.69c-2.08,3-4.46,6-6.89,8.86l-3.65,4.29L18.63,76l-.22.26-.16.21-.31.4-.6.8a50.58,50.58,0,0,1-4.57,4.85,27,27,0,0,0,2,2c.35.31.71.61,1.09.89l.14.1s0,0,0,0l.07-.06a.81.81,0,0,0,.12-.18l.47-.36a.71.71,0,0,1-.07.22c.44.41-.11-.38-.25-.71s-.37-.77-.57-1.13l.17.12-.23-.21a4.35,4.35,0,0,0-.43-.62,3.87,3.87,0,0,0,.71-.86c.13-.26.28-.53.43-.82l2-2.36,1.05-1.28,1.71-2a88.15,88.15,0,0,0,6.15-8c2.35-3.17,4-6.23,6.35-9.4A26.54,26.54,0,0,0,31,60.69Z"/><path class="cls-2" d="M21,96.59l.9.82,3.72-4.61q1.69-2.25,3.09-4.31c1-1.43,2.67-3.38,4.21-5.14s3.22-3.6,4.9-5.41c3.35-3.61,6.82-7.23,10-10.84a1.81,1.81,0,0,0-1.29-1.21c-3.86,3.53-7.41,7.34-10.93,11.18l-5.3,5.75L27.77,85.5c-.57.58-1.15,1.15-1.73,1.69l-.07.17a27.21,27.21,0,0,1-3.92,5.47c-.66-.64-1.34-1.3-2-1.93-.35-.31-.71-.61-1.07-.9l-.26-.21-.15-.07-.34-.15a1.51,1.51,0,0,1-.33-.13l-.18-.08-.33-.26-1.28-1-1.25-1-.31-.26-.19-.12L14,86.4a11.6,11.6,0,0,1-1-.83l-1.18-1L9.29,82.37c.57-.82,1.17-1.69,1.77-2.6L8.52,82.35l6.39,7.05,1.59,1.78,1.44,1.67C19,94.05,20,95.28,21,96.59Z"/><path class="cls-2" d="M33.57,44.23l-4.4,4.91c-4,4.67-7.46,8.94-10.91,13.39,2.83-3,5.69-5.92,8.63-8.86C29.68,50.59,31.47,47.4,33.57,44.23Z"/><path class="cls-2" d="M15.48,66.15l2.78-3.62L3,78.69,0,82.06l5.57,5.73.75.78,1.1,1.18L8.5,90.91l.54.57.24.24,1.91,1.86.48.47c.17.16.26.24.63.63l1.77,1.87,1.69,1.75L17,99.54l4.77,4.73,4.64-5.52q1.46-1.73,2.87-3.34L21.8,103l-4.44-5.12L12.47,92.3,7.85,87.11l-4.5-4.94c3.36-3.55,6.63-7.11,9.92-10.84,2.5-3,4.75-5.79,6.86-8.68l.54-.75Q16.8,65.92,13,70L2.8,80.79l7-7.86,1.81-2.06.46-.53.23-.26.16-.18.62-.75Z"/><path class="cls-2" d="M19.51,95.2c.35.4.69.81,1,1.21l1.21,1.07L21,96.59Z"/><path class="cls-2" d="M15.81,83.28l-.06-.09-.66-.63,1.37-1.67A35.71,35.71,0,0,1,19.11,77a35.26,35.26,0,0,0-4.29,5.56C15.16,82.83,15.49,83.06,15.81,83.28Z"/><path class="cls-2" d="M24.74,79.65l1.57-1.58.47-1-1.14,1.08Z"/><path class="cls-2" d="M45.73,54.18C39.3,61.69,33.32,68.8,27.41,75.85l-.63,1.26A87.88,87.88,0,0,0,38.59,63.58a28,28,0,0,1,2.2-3.31c3.6-3.85,6.7-7.84,9.84-11.78L45.87,54Z"/><path class="cls-2" d="M53.77,38l-.14.11.07.08C53.73,38.13,53.75,38.07,53.77,38Z"/><path class="cls-2" d="M53.13,37l0,0,.06.05A.29.29,0,0,1,53.13,37Z"/><path class="cls-2" d="M53.7,38.2a3.38,3.38,0,0,1,.7.81l-.29.26c0,.21.26.29.38.44-.07.06-.14.13-.08.2a.37.37,0,0,0,.49.22C54.5,39,55.05,38,53.7,38.2Z"/><path class="cls-2" d="M53.77,37.1l-.38.33a1.47,1.47,0,0,0,.38.56A1.5,1.5,0,0,0,53.77,37.1Z"/><path class="cls-2" d="M83.36,10.88s0-.07.07-.06l-.07.06s.09.1.08.16a5.39,5.39,0,0,1,.69-.92c0-.11-.07-.22-.1-.33A5.18,5.18,0,0,0,82.39,12C82.8,11.62,83,11.24,83.36,10.88Z"/><path class="cls-2" d="M83.7,9.3a.46.46,0,0,1,.07-.07C83.64,9.22,83.66,9.25,83.7,9.3Z"/><path class="cls-2" d="M72.37,22a4.17,4.17,0,0,0-.73,1.63,21.27,21.27,0,0,0,1.8-2.61C73.09,21.4,72.74,21.72,72.37,22Z"/><path class="cls-2" d="M70.53,26.34A2.4,2.4,0,0,0,71.7,24.8l-1.14,1.32A1.66,1.66,0,0,0,70.53,26.34Z"/><path class="cls-2" d="M70.74,25.35a3.36,3.36,0,0,0,.9-1.68A6.65,6.65,0,0,0,70.74,25.35Z"/><path class="cls-2" d="M74.77,10a3.25,3.25,0,0,1,.36-.89c0-.15-.08-.33-.13-.57l-.06.05q-.33.64-.72,1.26a3.06,3.06,0,0,0-.12.66C74.33,10.31,74.56,10.14,74.77,10Z"/><path class="cls-2" d="M75.13,9.07c.34,1.25.36-.48,0,0Z"/><path class="cls-2" d="M77,15.56l0,0-.1.18Z"/><path class="cls-2" d="M71.13,17a8,8,0,0,0,.73-.9,8.32,8.32,0,0,0-1.35,1.82c.08-.06.21-.05.29-.11A1.2,1.2,0,0,1,71.13,17Z"/><path class="cls-2" d="M78.71,12.89c-.63.88-1.21,1.79-1.74,2.71a14.5,14.5,0,0,0-3.65,4.58c-.66,1.61-2.84,3.24-3,5.44a2.08,2.08,0,0,0,.41-.27,3.45,3.45,0,0,0-.18.77,58.62,58.62,0,0,1-5.46,5.46c-.29.25-.32.66-.61.92s-.57.53-.84.8a.1.1,0,0,0,.05,0A42.29,42.29,0,0,0,60.47,37a18.08,18.08,0,0,1-1.75,1.53c-.22.19-.48-.11-.69,0a6.82,6.82,0,0,0-2.39.64l-.19-.22a.58.58,0,0,1-.27.23c-.4-1.1.14-2.09-1.2-1.93h0A1.46,1.46,0,0,0,54,37h0a1.53,1.53,0,0,0,0-.9l-.39.34a1.16,1.16,0,0,0-.24-.34s0,0,0-.08l.11-.1a1.28,1.28,0,0,0-.11-.2c.06-.61.45-1.24.08-1.45-.22-.09-.34.26-.54.59l-.12,0c.3-.39-.45-.52-.29-.78s.52-.59.81-.84A23.16,23.16,0,0,0,56.46,30l.13-.16a8.46,8.46,0,0,1,1.62-1.49c0,.08,0,.16,0,.24a5,5,0,0,0,1.3-1.21,22.76,22.76,0,0,1,2.79-3.59,31.54,31.54,0,0,0,3.26-3.63,9.91,9.91,0,0,1-1.22,1.7,8,8,0,0,0-.7.61,4.57,4.57,0,0,0,.7-.61c.93-.75,1.93-1.47,2-2.77.13,0,.2.07.27,0,.51-.44,1.09-.81,1.27-1.49-.06-.07.16-.27,0-.35a12.79,12.79,0,0,0,1.2-1.43,1.9,1.9,0,0,0,.25-.86c1.23-1.76,2.44-3.5,3.81-5.35A11.37,11.37,0,0,1,74.4,8.37,24.7,24.7,0,0,1,73,10.68a3.21,3.21,0,0,0-1.46,1.84l-.18.5c.56-.77,1.12-1.55,1.64-2.34.4-.29.83-.58,1.21-.9a0,0,0,0,1,0,0c-.21.36-.43.7-.66,1a3.51,3.51,0,0,0-1.39,1.58,1.11,1.11,0,0,0-.07.26l-.18.5,1-1.44.61-.9.54-.39v.1c-.08.2.26,1.43.67,1.46,1.11-1,2.39-2.72,2.46-2.65.33.24-1.27,2.3-1.13,2.31l.4-.2a2.54,2.54,0,0,0-.13.45c-.16.27-.52.45-.54.72-.12.89-.84,1.25-1.17,2.05-.17.54-.36,1.22-.54,1.9.13.15-.15.26,0,.35-.42.36-.89.77-.7,1.36l0,0a.3.3,0,0,0-.06.16c-.76.52-.88,1.35-1.26,2.17a4.47,4.47,0,0,1-.6.63c.15-.12.43-.24.51-.44l.09-.19a18.45,18.45,0,0,0,1.22-1.85c0-.08,0-.21,0-.32a.57.57,0,0,1,.13-.08l0-.11c.32-.66.83-1.23,1.07-1.82A9.55,9.55,0,0,1,77,14.24c-.31.48-.6,1-.88,1.46.4-.56.76-1.1,1.1-1.63l.21-.18.44-.38a4.53,4.53,0,0,0-.48.27c.2-.32.4-.65.58-1a19.48,19.48,0,0,1,4.11-4.29,3.65,3.65,0,0,1,.14.35,5.18,5.18,0,0,0-1.64,2.19c.41-.36.58-.73,1-1.1,0,0,.09.1.08.16a5.32,5.32,0,0,1,.68-.92c.08.27.14.55.2.83s-.24.47-.4.73c-.84,1-1.77,1.69-2.55,2.69-.86.69-1.71,1.39-2.52,2.11A29.48,29.48,0,0,0,78.71,12.89ZM55.8,36.13a2.75,2.75,0,0,0,.14-.3l-.08,0A.36.36,0,0,0,55.8,36.13Zm1.78-1.41a6.25,6.25,0,0,0-1.67,1.72.15.15,0,0,0,0,.06A9.11,9.11,0,0,0,57.58,34.72Zm3.34-.21h0l0,0ZM67.8,24.42a7.93,7.93,0,0,1-1.6,2.29c-.22.19-.18.68-.48.93s-.39.73-.62,1.06l.35,0C64.87,29,65,29.73,64.32,30c.07.08.12.29.05.35-.31.39-.8.56-1,1a5.24,5.24,0,0,0-.84,1.11c-.07.06,0,.41-.11.61s-.31.36-.47.53l.07,0a1.47,1.47,0,0,0,.39-.43,13.66,13.66,0,0,1,1.07-1.58A27.47,27.47,0,0,0,66,28.15c.16-.26.25-.6.41-.87.4-.86,1.27-1.49,1.26-2.39C67.71,24.76,67.86,24.63,67.8,24.42Zm-2-3.92a7,7,0,0,1-2,2.44c-.59.51-1.89,2.41-.83,3C62.33,23.75,67.82,21.76,65.84,20.5Zm4.94-6.65a3.66,3.66,0,0,1-.76,1C70.27,14.54,70.52,14.19,70.78,13.85Zm-.51,5.71a19.53,19.53,0,0,1,2.16-3.43c.54-.85,1.66-1.18,1.87-2.27l-.19-.22v.13a6.29,6.29,0,0,1-.87.37l0-.05a.18.18,0,0,0,0,.07,1,1,0,0,0-.46.41l-.15.31a10.21,10.21,0,0,0-2.08,3c-.32.67-.44,1.42-.76,2.09C69.9,19.88,70.18,19.76,70.27,19.56Z"/><path class="cls-2" d="M77.21,13.89c.24-.37.48-.73.74-1.08s.33-.62.48-.94c.83-1.42,2.32-2.48,3.43-3.75a2.42,2.42,0,0,0-.58-.66c-1.58.94-2.61,2.53-4.09,3.6a.43.43,0,0,0,0,0c-.2,1-1.28,1.63-1.69,2.63s-1,1.86-1.37,2.87A31.65,31.65,0,0,1,77.21,13.89Z"/><path class="cls-2" d="M71.7,24.8l.75-.89a22.79,22.79,0,0,0,1.69-2.62c-.51.51-1,1-1.58,1.47A5.9,5.9,0,0,0,71.7,24.8Z"/><path class="cls-2" d="M74.54,20.55l-.4.74c.75-.75,1.46-1.53,2.17-2.31,1-1.43,2.11-2.82,3.08-4.33a5.92,5.92,0,0,1,.35-.48c-2.49,2-5,4-6.22,6.73,0,.05,0,.11-.08.16.94-.9,1.81-1.84,2.67-2.8C75.57,19,75,19.76,74.54,20.55Z"/><path class="cls-2" d="M77,14.24a1.84,1.84,0,0,1,.22-.17c.06-.1.11-.2.17-.29l-.16.11C77.13,14,77.05,14.12,77,14.24Z"/><path class="cls-2" d="M73.23,14.14l0,0-.61.72a10.09,10.09,0,0,1-.73,1.22A6.71,6.71,0,0,0,73.23,14.14Z"/><path class="cls-2" d="M69.66,14.13l-.29.25c0,.09,0,.17,0,.25l.22-.16Z"/><path class="cls-2" d="M66.37,19.07c1-1.41,2-2.77,2.95-4.12l0-.32a5.69,5.69,0,0,0-2,2.5c-.08.21-.11.62-.26.75a13.15,13.15,0,0,0-1.56,2.26c.26-.34.52-.68.78-1Z"/></g></g></svg>