<svg xmlns="http://www.w3.org/2000/svg" viewBox="0 0 154.03 151.41"><defs><style>.cls-1{fill:#c1272d;}.cls-2{fill:#202020;}.cls-3{font-size:33px;font-family:EurostileBold, Eurostile;font-weight:700;}</style></defs><title>agency-logo</title><g id="Layer_2" data-name="Layer 2"><g id="Layer_11" data-name="Layer 11"><polygon class="cls-1" points="33.2 20.32 44.2 11.32 75.2 36.33 102.2 11.32 117.2 23.32 89.2 55.33 121.2 83.33 105.2 98.33 73.2 69.33 69.2 69.33 44.2 94.33 29.2 82.33 60.2 47.33 33.2 20.32"/><path class="cls-2" d="M97.75,21.54l-.71.63.14.13Z"/><path class="cls-2" d="M96.88,19.17l-.22.19c.06,0,.1.06.15.08A2.68,2.68,0,0,1,96.88,19.17Z"/><path class="cls-2" d="M97.18,22.3c.53.49,1.3.76,1.42,1.62L97,25.31c-.13.64.52.59.78.88-.39.35-.78.7-.65.84.08.61.73.49,1.57-.09C99,23.8,102.74,19.4,97.18,22.3Z"/><path class="cls-2" d="M99.27,18.36,97.2,20.19c.09.52.1,1.12.6,1.27A7.87,7.87,0,0,0,99.27,18.36Z"/><path class="cls-2" d="M102.55,58.53c-.08.08-.16.1-.37-.35l.37.35c.08-.08.17-.21.39-.1a45,45,0,0,1-4.49-3.85l-1-.12c3.51,3.61,7.18,7.11,11,8.92-1.1-.94-2.08-1.67-3.06-2.39S103.57,59.49,102.55,58.53Z"/><path class="cls-2" d="M96.35,55,96,54.6C96.18,55.06,96.26,55.05,96.35,55Z"/><path class="cls-2" d="M83.81,86.52a33.1,33.1,0,0,0-3.5-2.91l-5.09-4.08,4.85,4.63,3.23,3c2.11,1.91,4.12,3.68,6,5.09Q86.51,89.41,83.81,86.52Z"/><path class="cls-2" d="M70,63a88.59,88.59,0,0,0-7.13,7c2.14,2,4.27,3.92,6.33,5.65-1.89-1.89-3.77-3.77-5.62-5.64l5.64-5.88Z"/><path class="cls-2" d="M66.12,68.5c-.56.54-1.09,1.08-1.57,1.57a121.39,121.39,0,0,0,10.67,9.46c-3.33-3.16-6.78-6.36-10.34-9.45C65.33,69.52,65.73,69,66.12,68.5Z"/><path class="cls-2" d="M110.25,83c-1.15-.36-1.56-.41-1.74-.5a9.26,9.26,0,0,0-1.23.22l0,0a4.91,4.91,0,0,1,1.65.4.56.56,0,0,1,0,.08,6.82,6.82,0,0,1,.7.48c.24-.17.49-.35.71-.54Z"/><path class="cls-2" d="M108.51,82.47a8.71,8.71,0,0,0,1.21-.14c.09,0-.1-.08-.34-.1C108.89,82.2,108.2,82.34,108.51,82.47Z"/><path class="cls-2" d="M118.79,90.93l-.3.28-.77.91Z"/><path class="cls-2" d="M99.3,89.54c1.06,1,2.12,1.95,3.12,2.75-1-.93-2-1.86-3.12-2.82-1.5-1.38-3-2.66-4.37-3.74.35.38.57.9.93,1.28A12.77,12.77,0,0,1,99.3,89.54Z"/><path class="cls-2" d="M119.41,78.58l5.68,4.76-6.6,7.87-3.32,3.21-3.36,3.31c-2.23,2.23-4.45,4.49-6.71,6.86-2.11-2-4.25-4-6.47-6l-3.42-3c-.56-.47-1.24-1.08-1.67-1.4L92.11,93.1c-2.94-2.17-6.42-5.42-10-8.75L80.68,83.1l-1.9-1.8-4-3.74c-2.73-2.5-5.55-5-8.49-7.45,1.15-1.57,2.18-3.11,3.07-4.61-1.16,1-2.24,2-3.23,3q1.66-2.2,3.08-4.33l6.25-6.46,3-3.08,1.78-1.89,7.13-7.48c4.79-5,9.67-9.89,14.72-14.84,1.5-1.47,2.21-3,3.71-4.46s2.75-2.81,4.12-4.19l-.1-.08c.23-.41.35-.75.25-1a2.54,2.54,0,0,0-.69-.15c-.07,0-.08.11-.11.19s0,.08,0,.13v.14h0l-.08-.06-.27-.22c-.06,0,0,0,0,0l0,.07A.44.44,0,0,0,109,21a1.12,1.12,0,0,0,.2.18.22.22,0,0,0,0-.09h0a5.07,5.07,0,0,0-.25-1.09,1.45,1.45,0,0,0-1.12-.73l-.19,0h-.09a1.51,1.51,0,0,0-.27.16l-1.28.82c-.86.57-1.75,1.2-2.69,1.91l-.39-.44a9.08,9.08,0,0,1-1.43,1.26c.23-3.13,4-7.53-1.55-4.63h0l.56-.76.08-.07h0A7.67,7.67,0,0,0,102,14.34L100,16.18a1,1,0,0,0-.4-.75,1.38,1.38,0,0,1,.08-.27l.56-.5a1.8,1.8,0,0,0-.08-.54c.31-.56.7-1.15,1.1-1.73l1.1-1.63c.66-1,1.13-1.85.66-2-.63,0-2,1.66-3.26,3.15a1.73,1.73,0,0,0-.43.12c1.84-1.9-.93-1,.16-2.23,1.85-1.65,3.64-3.5,5.53-5.19L109.2.86c3,2.62,5.88,5.08,8.93,7.63l4.56,3.76,5,4,1.13.92c1.25,1,2.46,2,3.63,3q-3.67,3.78-7.68,7.48c.1-.29.21-.57.33-.86-1.5,1.38-2.95,2.75-4.37,4.16l-1,1-.83.87c-.54.59-1.08,1.19-1.6,1.8-5.07,6.06-10.13,12.13-16,18.14-3.09,3.13-6.07,6.25-9,9.42l-2.21,2.4L89,65.85l-.56.68c-.72.9-1.4,1.77-2,2.59a24.24,24.24,0,0,1,1.44-2.24c.28-.4.59-.81.92-1.22.6-.68,1.24-1.37,1.88-2,1.22-1.16,2.42-2.32,3.55-3.49-1.25,1.13-2.42,2.3-3.55,3.49L88.15,66c-.54.52-1.08,1-1.57,1.58a8.12,8.12,0,0,0-2,3,12.07,12.07,0,0,0,2.14,1c0,.2-.27.24-.1.42.61.65,1.17,1.32,1.8,1.92a7.39,7.39,0,0,0,1,.81,19.41,19.41,0,0,0,2,1.46c.14-.13,1.21,1,1.14.37,2.29,2.16,4.8,4.84,7.23,6.87a18.42,18.42,0,0,0,3.49,2.32.63.63,0,0,0,.17.13l.1.05.18.09.36.17.63.25a3.5,3.5,0,0,0,1,.22,6.87,6.87,0,0,0,.77-2.08l0-.18a.18.18,0,0,1,0-.1l.44-.5a.78.78,0,0,0,0-.28.61.61,0,0,0-.32-.35.9.9,0,0,0-.18-.06h-.06a2.4,2.4,0,0,1,1,0,.75.75,0,0,1,.57.84,2.42,2.42,0,0,0-.39.27l-.57.56a1.27,1.27,0,0,0-.13.19,6.37,6.37,0,0,0-.37,1.55,10,10,0,0,1-.32,1,15.48,15.48,0,0,0,1-1.87l.15-.38,0-.09,0,0,.14-.17.31-.35,0-.08a2.55,2.55,0,0,0,.11-.61,8.6,8.6,0,0,0,1.13-.76l0,0a1.6,1.6,0,0,1,0,1c-.19.14-.36.27-.52.41l-.22.21-.1.11,0,.06,0,0-.1.11-.25.26-.12.12,0,0-.09.13-.15.31a6.93,6.93,0,0,0-.27.81l-.13.53c-.11.36-.25.73-.41,1.12.34-.51.65-1,.91-1.43l.37-.64a3.24,3.24,0,0,1,.68-.93,6.75,6.75,0,0,0,.5-1.25l.72-.51.12.1a9.24,9.24,0,0,0,1.13.85c.56.39,1.15.82,1.74.67.69-.67,1.37-1.41,2-2.1-1.3-1.11-2.56-2.1-3.43-2.77-.42-.34-.77-.61-1-.8L110,79.4c-.06-.06-.18-.19-.15-.19s.07-.07.15-.06l.16,0h.12a2.82,2.82,0,0,1,.7.26,19.21,19.21,0,0,1,2.15,1.29c1.61,1.07,3.42,2.45,3.45,2.34-.19-.31-.42-.64-.66-1l1.61.89.29.23c-.54.67-1.53,1.43-1.56,2a8.33,8.33,0,0,1-2,3.22l-1.56,1.79-.26.29-.19.24-.38.49c-.26.33-.51.68-.76,1-1.19,1.94-2.9,4.64-5.11,7.81,0,.35-.48.81-.71,1.14-.12-.06-.17,0,0,.3-2.07-2.21-4.34-4.63-5.83-4.55l-.18-.15a3.34,3.34,0,0,0-.7-.52,35.93,35.93,0,0,0-2.68-2.78c-.88-.81-1.63-1.41-2.47-2-1.63-1.25-3.32-2.38-5.12-3.75-1.12-1.06-2.23-2.15-3.33-3.32a24.43,24.43,0,0,0,2.51,2.68l.82.64c1.46,1.36,2.93,2.65,4.39,3.9l2.2,1.86,2.46,2.14c.31.16.8.42,1.22.68.21.23.41.47.61.71a1.26,1.26,0,0,1,.27,0c2.07,1.64,4.11,3.5,5.86,5,.83-1,1.59-1.88,2.25-2.75a81.36,81.36,0,0,1,6.21-6.44c2.15-2,4.35-4,6.54-6l-5.5,6.68c2.49-2.82,4.73-5.41,6.6-7.69l1.09-1,1.51-1.43-.71-.71.59.71-1.5,1.25,1-1.26c-1.11-.89-2.18-1.73-3.22-2.51-2-1.65-3.81-3.2-5.55-4.71l-1.4-1.23-1.49-1.34-2.91-2.66-1.47-1.17-1.58-1.29-3.14-2.62a71.1,71.1,0,0,1-5.84-5.67,8.6,8.6,0,0,1,1,0A49.08,49.08,0,0,0,109.26,69c-2.26-1.93-4-3-6.25-4.85.08-.08.17-.22.4-.11a40.86,40.86,0,0,1-4.75-3.81c.83.11,1.71.27,2.6.43a32,32,0,0,1,3.46,2.39c1.34,1,2.63,2.07,3.91,3.11l1.91,1.55c.38.32.73.6,1,.92l.89.85,3.59,3.39c1.32,1.23,2.75,2.54,4.22,3.85l6.52,6.64c-2.75,2.56-5.41,5.07-8,7.57,2.5-2.81,4.69-5.33,6.56-7.59C123.25,81.6,121.28,80,119.41,78.58ZM107,13.12l.68-1-.15-.06A2.15,2.15,0,0,0,107,13.12Zm5.31,1a6.77,6.77,0,0,0-.63-.69,10.44,10.44,0,0,0-.77-.71c-.53-.46-1.11-.9-1.67-1.3-.81.86-1.59,1.77-2.32,2.59a.47.47,0,0,0,0,.17A17.6,17.6,0,0,0,109.2,12Zm.77,6.12.07,0-.12,0ZM80.79,61.47c.7-1,1.74-2.3,2.37-3.12s1.52-1.84,2.35-2.77c1.66-1.87,3.47-3.77,5.2-5.75,1.12-1.1,1.7-2.76,3.19-4.23,1.74-2,2.59-3.35,3.95-5l-1.4.82c2.76-2.43,3.44-4.73,6.33-7-.14-.14,0-.79.34-1.15,1.73-2,3.88-3.54,5.1-5.28.87-1,1.77-1.94,2.61-2.86l.61-.69.3-.34a1.76,1.76,0,0,0,.2-.26,1.84,1.84,0,0,0,.23-.55c.14-.13-.13-.69-.12-1,.16-.28.35-.53.52-.77h-.21a1.18,1.18,0,0,0-.41.6,6.52,6.52,0,0,1-.5,1.28c-1.1,1.31-2.21,2.61-3.26,3.78C102.84,33,98.15,38.7,93.46,44.4c-1,1.24-1.84,2.62-2.82,3.86-2.84,3.87-7.06,7.74-8.39,11C81.91,59.83,80.94,60.78,80.79,61.47Zm4.62,7.35a17.56,17.56,0,0,1,1.23-2c.25-.35.51-.7.79-1l.42-.54.22-.27.35-.38c1.92-2.14,3.91-4.16,5.83-5.93,3-2.94,10.78-12.22,7.64-12.42C101.53,49.6,95.36,55.69,90,61L88,63l-.93.94-.66.69a22.41,22.41,0,0,0-2,2.37C83.5,68.31,83.71,68.92,85.41,68.82ZM105,88a2.76,2.76,0,0,1-1.66-.91C104,87.46,104.54,87.77,105,88ZM88.7,82.22a98.9,98.9,0,0,1,8.18,6.7l1.9,1.7L100.33,92c1,.85,2,1.65,2.88,2.34a17.81,17.81,0,0,1,2.14,2c1-1,2.09-1.91,3.08-2.94a11.87,11.87,0,0,0,2.4-3.32l-.36-.46-.11.38A21.9,21.9,0,0,1,108,91.38l.1-.16-.19.22a4.81,4.81,0,0,0-1.38,1.35l-.72,1-.37.41c-1.3-1.15-2.68-2.39-4.21-3.63-1.24-.92-4-3.3-6.27-4.89-2.94-2.28-5.8-3.91-8.74-6.19A23.56,23.56,0,0,0,88.7,82.22Z"/><path class="cls-2" d="M121.45,85.26q.81-1,1.62-2l-3-2.51c-1.43-1.1-2.81-2.1-4.12-3-.75-.56-1.47-1.13-2.16-1.7-.32-.25-.8-.67-1.2-1L111.3,74l-2.51-2.3a5.58,5.58,0,0,0-.55-.49l-.56-.45-1.37-1.12c-1.82-1.51-3.68-3-5.48-4.56s-3.51-3.18-5.21-4.75a1.83,1.83,0,0,0-1.25,1.25A62.56,62.56,0,0,0,99.7,67c1.93,1.67,3.91,3.28,5.88,4.88l.75.6.34.27-.06,0,0,0,0,0,.11.09A1.81,1.81,0,0,1,107,73l.33.31L108,74l2.66,2.54,2,2c.53.54,1.06,1.09,1.55,1.64l.17.08a21,21,0,0,1,4.28,3,41.29,41.29,0,0,0-4,5c-.23.42-.5.85-.78,1.29l-.44.67-.23.34-.3.4c-.68.93-1.34,1.83-2.1,2.79-1.49,1.92-3.12,4-5,6.35,2.66-2.53,5.22-5.09,7.72-7.55S118.62,87.7,121.45,85.26Z"/><path class="cls-2" d="M69.18,75.69l7.49,7.49L78,84.44l.6.57.39.36,1.57,1.39,3.08,2.68c2,1.75,4,3.42,6.1,5.1q-4.06-4.11-8.08-8.39c-.7-.67-1.42-1.29-2.14-1.87l-1.56-1.34-1.66-1.4C74,79.68,71.66,77.79,69.18,75.69Z"/><path class="cls-2" d="M93.49,97.73l-1.2-1.06L92,96.4l-.21-.17-.42-.34-1.65-1.35L104.94,110l1.63-1.63,6.42-6.8,3.07-3.27,1.51-1.6,1.28-1.39c3.92-4.2,7.59-8.18,10.89-11.89l-3.45-3c-1.09-.94-2.13-1.86-3.14-2.76l5.6,5.71c-8.36,7.8-15.84,14.87-23.7,23-2.56-2.5-5.15-5-7.83-7.41-1.34-1.21-2.73-2.47-4.1-3.67-1.06-.87-2.12-1.71-3.19-2.52l-.68-.53,7.28,7.44,8.46,8.54,3.26-3.29L105,108.39Z"/><path class="cls-2" d="M120.18,86.78l1.1-1,1-1.2-.81.69Z"/><path class="cls-2" d="M108,91.38l-.09.06q-1,1.17-2.1,2.4l-.37.52a24.15,24.15,0,0,1-3-2.07c1,1,2.06,1.88,3,2.61A24.83,24.83,0,0,0,108,91.38Z"/><path class="cls-2" d="M104.46,85.9l-.29-.31c-.12,0-.24.09-.37.12L104,86A3,3,0,0,0,104.46,85.9Z"/><path class="cls-2" d="M86.71,71.55c1,.74,1.83,1.39,2.62,2l.59.41.14.1.07,0,.15.14.63.57L93.4,77l9.8,8.72.14.07h.2l.26-.06-.16-.2-.72-.78-1.48-1.57c-1-1-2-2-3-3A63.07,63.07,0,0,0,92,74.84c-.43-.31-1-.66-1.59-1a1.37,1.37,0,0,1-.72-.3c-1.06-.93-2.38-1.83-4-3,.22-.44.46-.9.75-1.41-.35.48-.69.95-1,1.4l1.23,1Z"/><path class="cls-2" d="M55.08,44.56l.68.74.13-.15Z"/><path class="cls-2" d="M52.69,45.45l.22.23a.46.46,0,0,1,.07-.16Z"/><path class="cls-2" d="M55.9,45.15c.47-.54.71-1.34,1.58-1.45L59,45.32c.66.14.57-.53.86-.8.38.41.76.82.9.68.62-.08.46-.75-.19-1.63C57.34,43.32,52.6,39.39,55.9,45.15Z"/><path class="cls-2" d="M51.72,43l2,2.14c.54-.09,1.15-.09,1.27-.61A8.22,8.22,0,0,0,51.72,43Z"/><path class="cls-2" d="M70.83,74.17c-.08-.09-.09-.17.38-.41l-.38.41c.08.08.22.17.1.4,1.19-1.55,2.61-3.32,4.1-4.95,0-.35.09-.69.11-1-3.7,4-7.49,7.91-9.84,11.83C67.49,78.17,68.75,76.37,70.83,74.17Z"/><path class="cls-2" d="M74.59,67.48l.38-.41C74.5,67.31,74.51,67.39,74.59,67.48Z"/><path class="cls-2" d="M47.81,55.94a56.13,56.13,0,0,0,5.51-7.64C49.23,53.17,44.84,58,42,61.9Q44.85,58.91,47.81,55.94Z"/><path class="cls-2" d="M61,37l-.32.18,0,0h0l-.07.06-.27.26-.51.51c-.68.68-1.3,1.36-1.87,2a48.56,48.56,0,0,0-3.06,4.16l3.34-3.7,1.67-1.84.84-.92.2-.23.08-.09.09-.14A1.86,1.86,0,0,0,61,37Z"/><path class="cls-2" d="M59.58,40.12a45.25,45.25,0,0,0-6.26,8.18A94.52,94.52,0,0,0,59.58,40.12Z"/><path class="cls-2" d="M44,83.67c.33-1.15.37-1.55.46-1.73a8.65,8.65,0,0,0-.32-1.15l0,0a4.94,4.94,0,0,1-.43,1.84l-.12.45-.32.55.3.43A5.57,5.57,0,0,0,44,83.67Z"/><path class="cls-2" d="M44.47,81.94a6,6,0,0,0,.22,1.14c.05.08.09-.1.09-.33C44.79,82.27,44.6,81.63,44.47,81.94Z"/><path class="cls-2" d="M36.49,93.39,36.15,93l-.55-.53-.44-.4C35.48,92.36,36,92.94,36.49,93.39Z"/><path class="cls-2" d="M44.74,72.07c-1.49,1.61-3,3.28-4.34,4.92,3-3.28,6-6.62,8.26-9.66-.39.39-.93.65-1.32,1A14,14,0,0,1,44.74,72.07Z"/><path class="cls-2" d="M49.35,91.93,43.17,99.5l-3.27-3-1.7-1.56L36.15,93l-4.83-5.39-2.48-2.73-2.47-2.65c2.8-3,5.52-6,8.26-9.19l1-1.16.82-1,1.59-2c1-1.32,2-2.65,3-4,5.19-7.4,16.49-18.15,20.58-26.66-.74.62-1.41,1.24-2,1.87.37-.56.71-1.11,1-1.65l.47-.81c0-.12,0-.23,0-.35l1.43-2.1L61,34l-.64-.51-2.81-2.77L51.77,25c-1.66-1.7-3.34-3.4-5-5.13-.3-.3-.75.08-.91-.09a4.28,4.28,0,0,0-.38-.29l-.21.23a.78.78,0,0,0,0,.16,5.54,5.54,0,0,0-.4.58c0,.09-.1.17-.14.26v0l0,0-.14.13-.55.5-.27.25c-.07.07,0,0,0,.06l0,.06c-.1.31-.06.54.23.62a1.54,1.54,0,0,0,.36,0c.13,0,.1,0,.08,0h0l.14.15.28.31L47,25.3c1.14,1.22.57,1.76,1.19,2.7a82.21,82.21,0,0,0,7.16,10.83l-.43.4a10,10,0,0,1,1.37,1.48c-3.23-.25-8-4.18-4.67,1.58h0l-.82-.59-.07-.08v0a8.57,8.57,0,0,0-3.27-1.53l2,2.14a1,1,0,0,0-.75.42l-.28-.08L47.87,42a1.82,1.82,0,0,0-.55.08c-2.35-1.29-5.42-3.94-5.49-2.82.11.72,1.64,1.84,3.27,3.22a3.81,3.81,0,0,0,.15.44c-2-1.9-1,.94-2.28-.15-1.52-1.63-3.18-3.12-4.7-4.75l-3.62-3.84-4-4.12c-2.84-2.93-5.71-5.84-8.89-9l4.54-4.26,1.06-1q3-2.75,6-5.39l2.77-2.36,3.13-2.55-.66,1.06c2.63-2.1,5.17-4.2,7.76-6.58.61.58,1.22,1.14,1.84,1.69L59.57,11.81c3.18,2.83,6.35,5.76,9.52,8.89L76,27.53l8,7.86c-3.87,4.14-7.84,8.45-12.08,13.1C75.73,44.07,79.22,40,83,36l.65-.63c-1.54-1.62-3.09-3.22-4.64-4.77,1.5,1.63,3,3.2,4.6,4.77L83,36C79.5,39.48,76,42.9,72.8,46.3l-1.18,1.28-.29.32-.19.23-.39.46c-.51.62-1,1.23-1.44,1.85A24.41,24.41,0,0,0,67,54.18c-.52.29-.66.15-1,.54-2.76,2.76-5.65,5.37-7.46,8.29.14.14-1,1.32-.37,1.2-2.23,2.5-5,5.26-7.07,7.89a20.77,20.77,0,0,0-2.38,3.75l-2.9,3.45L44.4,81l-.19.46A3.28,3.28,0,0,0,44,82.82a8.06,8.06,0,0,0,.84.37l.18.07H45s0,0,0,0L44.84,83l-.69-.86-.7-.87-.35-.44-.18-.22-.07-.09,0,0,.83.79L45.39,83l.21.2.1.1.06,0h0l-.48-.62-1-1.29-.52-.66-.26-.33c-.06-.08,0-.07,0-.07h0l.06-.07a.94.94,0,0,0,.13-.32l0-.12a2.41,2.41,0,0,1,0,1.32.63.63,0,0,1-.27.31.68.68,0,0,1-.2.07l-.11,0h0l.16.22.34.47,1.41,1.53.16.18L45,83.82l-.29-.34-.58-.67-1.15-1.3-.29-.32L42.49,81s-.14-.15,0,0l1,1.19,1,1.17c0,.06-.08,0-.11,0L44,83.22l-1.1-.37-.19-.08a1,1,0,0,1-.21-.4l-.14.39c.31.21.6.4.88.57l.4.23.09.06,0,0-.19-.25-.87-1.11-.45-.56L42,81.44,42,81.36l0,0,0,0,.07.07.63.6,1.24,1.18.62.59.31.3.07.06-.07-.09-.14-.19-1.18-1.59-.36-.4L43,81.69l0,0,.07.13.16.28c.12.19.24.38.36.55l.13-.11,0,.08-.11.27a1.43,1.43,0,0,1-.85-.06l-.11-.15s-.05-.06,0,0l.13.14.25.29,1,1.13.25.29.07.07,0-.05-.13-.15-.51-.58-1-1.13-1-1.07L43,83.38l.3.4-.1,0-.21-.1-.49-.21-.6-.23q-.48-.21-1-.48v-.12l-.06.12c.51.39,1,.74,1.43,1.05l.33.23-1-1.25-.49-.63,0,0,0,0,0,.05.11.1.21.2.84.81,1.1,1,.56.53.06.06L44,84.83l-.1-.14-.2-.28-.83-1.17-.22-.3-.09-.13h0l.14,0,.52.79-.08.13A9.35,9.35,0,0,0,42.41,85,2.66,2.66,0,0,0,41.85,87c.51.56,1.06,1.13,1.59,1.66,1.27-1.49,2.45-3,3.25-4.06l.54-.71.22-.29.44-.5a6.58,6.58,0,0,1,1-1c.24,0-.18.77-.92,1.84a21.12,21.12,0,0,1-1.32,2.23c-1.09,1.67-2.5,3.57-2.38,3.59.33-.22.68-.48,1-.75l-.89,1.65a12.7,12.7,0,0,1-1,1.19c-.46-.49-.9-1-1.23-1-.92-.16-2.3-1.44-2.66-1.63-.87-.77-3.45-3.57-3.77-3.35-1.26-.9-2.79-2-4.67-3.46a25.39,25.39,0,0,1,1.31-2.62c-.45-.1.95-1.22.12-1,1.13-1.13,2.33-2.33,3.28-3.48a12.6,12.6,0,0,0,1.2-1.68,3.62,3.62,0,0,0,.53-1.46L37.6,72a3.65,3.65,0,0,0,.51-.73c3.84-3.55,5.65-6.9,8.47-10.78,1.08-1.23,2.21-2.45,3.42-3.65a25.69,25.69,0,0,0-2.76,2.76l-.66.89c-2.8,3.17-5.28,6.38-7.82,9.52-.15.31-.39.82-.65,1.26l-.64.59v.32c-.3.39-.61.78-.91,1.18l-1,1.26-2,2.4c-1.28,1.56-2.45,3-3.24,4.2l-.89,1.09c1.09,1.07,2.1,2.12,3.08,3.18l1.4,1.54,1.36,1.57,2.79,3.3L40.8,95.2,34,89.07,38.15,93c1.32,1.25,2.52,2.35,3.68,3.4l1,1.2.35.39,1.92-2c-.66.56-1.29,1.13-1.92,1.69L43,97.48l.19.16C44.55,96,45.8,94.34,47,92.8l2.48-3,2.46-2.93c1.84-2.14,3.72-4.28,5.63-6.39,3.82-4.22,7.76-8.35,11.79-12.3a9.12,9.12,0,0,1,0,1c-3.71,4-7.5,7.9-9.85,11.83C61.64,78.76,62.91,77,65,74.75a.29.29,0,0,1,.09.41c1.19-1.55,2.61-3.32,4.1-5-.12.86-.31,1.78-.5,2.69A25.52,25.52,0,0,1,66,76.51c-2.39,2.71-4.79,5.27-7.17,7.84l-3.54,3.86-1.82,2-2,2.31L43.13,101l-6.64-7.6,2,1.94,1.64,1.57,3.07,2.88C45.45,97,47.51,94.37,49.35,91.93ZM44.12,33.07c-.45-.36-.92-.73-1.4-1.09,0,.1.06.19.08.29A3.16,3.16,0,0,0,44.12,33.07Zm-7.21-8A10.6,10.6,0,0,0,38,26.43c.48.52.76.77,1.74,1.74,1.68,1.64,3.51,3.32,5.28,5a.37.37,0,0,0,.14-.07c-1.33-1.55-2.94-3.16-4.63-4.79l-1.29-1.22-.77-.65Zm4.24-4.19h-.08l.09,0ZM68.69,38.44a18.37,18.37,0,0,1,2-3.16c-1.8-1.51-3.43-3.06-5.12-4.47a5.15,5.15,0,0,0-1.44-.92A13.16,13.16,0,0,1,61.83,28c-2.08-1.86-3.52-2.79-5.21-4.25l.88,1.47c-2.57-2.94-5-3.72-7.39-6.79-.14.13-.81,0-1.2-.39a8.25,8.25,0,0,1-1.14-1.15,2.45,2.45,0,0,0-1.05-.84c-.38-.26-.73-.55-1.06-.79a7,7,0,0,0-1,1.34,9.45,9.45,0,0,0-.44,1.4c-.25.32-.49.59-.72.86l.12.1a2,2,0,0,0,.56-.67,17.45,17.45,0,0,1,1.43-2.18,7.36,7.36,0,0,1,.8.48c.48-.07,8.63,7.22,14.18,11.83.65.53,1.33,1,2,1.53l.51.37.26.19.16.09c.2.11.41.24.61.37a26.19,26.19,0,0,1,2.73,2c.92.76,1.86,1.53,2.89,2.27a4,4,0,0,0-.6,1.85C69.13,37.45,68.57,38,68.69,38.44Zm2.78,9.22C75,43.3,78.65,39.18,82.29,35.38c-2-1.94-3.76-3.79-5.42-5.58a85.45,85.45,0,0,0-9.18-8.22c-2.84-2.09-5.31-3.38-5.38-1.76,1.79.26,4.36,2.14,7.21,4.7,3.41,3.14,7.35,7.2,10.91,10.84-3.34,3.37-6.33,6.43-8.14,8.68a10.05,10.05,0,0,0-1.71,2.7.65.65,0,0,0,.09.7A.86.86,0,0,0,71.47,47.66ZM43.06,81.15a5,5,0,0,1,.41-1l0-.06s0,0,.08-.11l.3-.35L44.5,79c.41-.47.85-.93,1.32-1.4L44.65,79l-.59.69-.29.34-.15.18,0,.06Zm9.19-20.46a111.52,111.52,0,0,1-6.88,8.86c-1.23,1.43-2.45,2.87-3.66,4.29L39.91,76l-.22.26-.16.21-.31.4-.6.8a50.58,50.58,0,0,1-4.57,4.85c.63.69,1.28,1.38,2,2,.35.31.72.61,1.09.89l.15.1s0,0,0,0l.07-.06a.83.83,0,0,0,.13-.18L38,84.9a1.14,1.14,0,0,1-.07.22c.43.41-.12-.38-.26-.71s-.36-.77-.57-1.13l.18.12L37,83.19a5.36,5.36,0,0,0-.43-.62,4.51,4.51,0,0,0,.71-.86c.12-.26.27-.53.43-.82l2-2.36,1-1.28,1.71-2a90.17,90.17,0,0,0,6.16-8c2.34-3.17,4-6.23,6.35-9.4A25.69,25.69,0,0,0,52.25,60.69Z"/><path class="cls-2" d="M42.32,96.59l.9.82L47,92.8q1.68-2.25,3.09-4.31c1-1.43,2.66-3.38,4.2-5.14s3.22-3.6,4.9-5.41c3.36-3.61,6.82-7.23,10-10.84a1.78,1.78,0,0,0-1.29-1.21C64,69.42,60.43,73.23,56.91,77.07l-5.3,5.75L49.05,85.5c-.57.58-1.14,1.15-1.72,1.69l-.08.17a27.13,27.13,0,0,1-3.91,5.47c-.66-.64-1.35-1.3-2.05-1.93-.35-.31-.7-.61-1.07-.9L40,89.79l-.15-.07-.34-.15a1.73,1.73,0,0,1-.33-.13L39,89.36l-.33-.26-1.27-1L36.1,87l-.31-.26-.18-.12-.37-.24a11.6,11.6,0,0,1-1-.83l-1.18-1-2.48-2.17c.58-.82,1.17-1.69,1.77-2.6L29.8,82.35l6.4,7.05,1.58,1.78,1.44,1.67C40.25,94.05,41.28,95.28,42.32,96.59Z"/><path class="cls-2" d="M54.85,44.23l-4.39,4.91c-4,4.67-7.47,8.94-10.91,13.39q4.23-4.45,8.62-8.86C51,50.59,52.75,47.4,54.85,44.23Z"/><path class="cls-2" d="M36.77,66.15l2.78-3.62L24.3,78.69l-3,3.37,5.57,5.73.75.78,1.1,1.18,1.09,1.16.53.57.25.24,1.91,1.86.47.47a8.78,8.78,0,0,1,.63.63l1.78,1.87L37,98.3l1.23,1.24,4.78,4.73,4.63-5.52c1-1.15,1.93-2.26,2.87-3.34L43.08,103l-4.44-5.12L33.76,92.3l-4.63-5.19-4.5-4.94c3.37-3.55,6.64-7.11,9.92-10.84,2.5-3,4.75-5.79,6.86-8.68L42,61.9q-3.87,4-7.63,8.06L24.09,80.79,31,72.93l1.82-2.06.46-.53.23-.26.15-.18.62-.75Z"/><path class="cls-2" d="M40.8,95.2c.34.4.68.81,1,1.21L43,97.48l-.71-.89Z"/><path class="cls-2" d="M37.09,83.28,37,83.19l-.66-.63,1.37-1.67A33.06,33.06,0,0,1,40.4,77a35.42,35.42,0,0,0-4.3,5.56C36.45,82.83,36.77,83.06,37.09,83.28Z"/><path class="cls-2" d="M46,79.65l1.57-1.58.47-1-1.14,1.08Z"/><path class="cls-2" d="M67,54.18C60.58,61.69,54.6,68.8,48.69,75.85l-.63,1.26A86.81,86.81,0,0,0,59.87,63.58a29.25,29.25,0,0,1,2.2-3.31c3.6-3.85,6.71-7.84,9.85-11.78L67.15,54Z"/><text class="cls-3" transform="translate(0.03 143.16)">AGENCY <tspan class="cls-1" x="133.1" y="0">X</tspan></text><path class="cls-2" d="M75.05,38l-.13.11.06.08C75,38.13,75,38.07,75.05,38Z"/><path class="cls-2" d="M74.41,37l0,0,.06.05A.29.29,0,0,1,74.41,37Z"/><path class="cls-2" d="M75,38.2a3.66,3.66,0,0,1,.71.81l-.3.26c.06.21.26.29.39.44-.08.06-.15.13-.08.2a.37.37,0,0,0,.49.22C75.78,39,76.33,38,75,38.2Z"/><path class="cls-2" d="M75.06,37.1l-.39.33a1.49,1.49,0,0,0,.39.56A1.5,1.5,0,0,0,75.06,37.1Z"/><path class="cls-2" d="M104.64,10.88s0-.07.08-.06l-.08.06s.1.1.09.16a4.85,4.85,0,0,1,.68-.92c0-.11-.06-.22-.1-.33A5.26,5.26,0,0,0,103.67,12C104.09,11.62,104.26,11.24,104.64,10.88Z"/><path class="cls-2" d="M105,9.3l.07-.07C104.93,9.22,104.94,9.25,105,9.3Z"/><path class="cls-2" d="M93.65,22a4.32,4.32,0,0,0-.73,1.63,22.62,22.62,0,0,0,1.81-2.61C94.38,21.4,94,21.72,93.65,22Z"/><path class="cls-2" d="M91.81,26.34A2.45,2.45,0,0,0,93,24.8l-1.15,1.32Z"/><path class="cls-2" d="M92,25.35a3.36,3.36,0,0,0,.9-1.68A6.65,6.65,0,0,0,92,25.35Z"/><path class="cls-2" d="M96.06,10a3,3,0,0,1,.35-.89c0-.15-.08-.33-.13-.57l-.06.05c-.22.43-.46.85-.71,1.26a2.55,2.55,0,0,0-.12.66C95.62,10.31,95.84,10.14,96.06,10Z"/><path class="cls-2" d="M96.41,9.07c.34,1.25.37-.48,0,0Z"/><path class="cls-2" d="M98.3,15.56l0,0-.1.18Z"/><path class="cls-2" d="M92.41,17a8,8,0,0,0,.73-.9,8.26,8.26,0,0,0-1.34,1.82c.07-.06.21-.05.28-.11A1.2,1.2,0,0,1,92.41,17Z"/><path class="cls-2" d="M100,12.89c-.63.88-1.21,1.79-1.74,2.71a14.5,14.5,0,0,0-3.65,4.58c-.66,1.61-2.84,3.24-3,5.44a2.33,2.33,0,0,0,.4-.27,4.1,4.1,0,0,0-.18.77,58.51,58.51,0,0,1-5.45,5.46c-.3.25-.32.66-.62.92l-.84.8a.1.1,0,0,0,0,0A44,44,0,0,0,81.76,37,18.19,18.19,0,0,1,80,38.51c-.22.19-.48-.11-.69,0a6.88,6.88,0,0,0-2.39.64l-.19-.22a.58.58,0,0,1-.27.23c-.4-1.1.15-2.09-1.2-1.93h0a1.39,1.39,0,0,0,.06-.19h0a1.53,1.53,0,0,0,0-.9l-.39.34a1.16,1.16,0,0,0-.24-.34.24.24,0,0,0,0-.08l.11-.1a1.28,1.28,0,0,0-.11-.2c.06-.61.45-1.24.08-1.45-.21-.09-.34.26-.54.59l-.12,0c.31-.39-.44-.52-.29-.78s.52-.59.82-.84A23.09,23.09,0,0,0,77.74,30c0-.05.09-.1.13-.16a8.46,8.46,0,0,1,1.62-1.49,1.93,1.93,0,0,1,0,.24,5,5,0,0,0,1.3-1.21,22.83,22.83,0,0,1,2.8-3.59,32.42,32.42,0,0,0,3.25-3.63,9.4,9.4,0,0,1-1.22,1.7,6.68,6.68,0,0,0-.69.61,5,5,0,0,0,.69-.61c.93-.75,1.93-1.47,2-2.77.13,0,.19.07.26,0a3.24,3.24,0,0,0,1.28-1.49c-.07-.07.15-.27,0-.35a11.8,11.8,0,0,0,1.2-1.43,1.9,1.9,0,0,0,.26-.86c1.23-1.76,2.43-3.5,3.8-5.35a12.3,12.3,0,0,1,1.27-1.23,24.7,24.7,0,0,1-1.38,2.31,3.21,3.21,0,0,0-1.46,1.84l-.18.5c.57-.77,1.12-1.55,1.64-2.34.41-.29.84-.58,1.22-.9a0,0,0,0,0,0,0c-.22.36-.44.7-.67,1a3.57,3.57,0,0,0-1.39,1.58,2,2,0,0,0-.07.26l-.18.5,1-1.44.61-.9.55-.39s0,.07,0,.1c-.08.2.26,1.43.68,1.46,1.11-1,2.39-2.72,2.45-2.65.33.24-1.27,2.3-1.13,2.31l.4-.2a3.81,3.81,0,0,0-.13.45c-.16.27-.51.45-.53.72-.13.89-.84,1.25-1.18,2.05-.17.54-.35,1.22-.54,1.9.13.15-.15.26,0,.35-.41.36-.89.77-.69,1.36,0,0,0,0,0,0a.4.4,0,0,0-.07.16c-.75.52-.88,1.35-1.25,2.17a4.54,4.54,0,0,1-.61.63c.15-.12.43-.24.52-.44l.09-.19a18.45,18.45,0,0,0,1.22-1.85,2,2,0,0,1,0-.32.57.57,0,0,1,.13-.08.76.76,0,0,1,0-.11c.32-.66.82-1.23,1.07-1.82a9.35,9.35,0,0,1,2.43-2.26c-.31.48-.6,1-.87,1.46.39-.56.75-1.1,1.09-1.63l.21-.18.44-.38a4.39,4.39,0,0,0-.47.27c.2-.32.39-.65.57-1a19.3,19.3,0,0,1,4.12-4.29c0,.11.09.23.13.35a5.18,5.18,0,0,0-1.64,2.19c.41-.36.59-.73,1-1.1,0,0,.1.1.09.16a4.85,4.85,0,0,1,.68-.92c.07.27.13.55.19.83s-.24.47-.39.73c-.84,1-1.77,1.69-2.55,2.69-.86.69-1.72,1.39-2.53,2.11A27.43,27.43,0,0,0,100,12.89ZM77.08,36.13a2.75,2.75,0,0,0,.14-.3l-.08,0A.36.36,0,0,0,77.08,36.13Zm1.78-1.41a6.39,6.39,0,0,0-1.67,1.72.15.15,0,0,0,0,.06A9.11,9.11,0,0,0,78.86,34.72Zm3.34-.21h0l0,0Zm6.89-10.09a8,8,0,0,1-1.61,2.29c-.22.19-.18.68-.47.93s-.4.73-.63,1.06l.35,0c-.58.37-.48,1.07-1.13,1.36.07.08.12.29.05.35-.3.39-.8.56-1,1a5.6,5.6,0,0,0-.84,1.11c-.07.06,0,.41-.1.61l-.48.53.07,0a1.65,1.65,0,0,0,.4-.43,12.5,12.5,0,0,1,1.07-1.58,28.5,28.5,0,0,0,2.51-3.47c.15-.26.24-.6.4-.87.4-.86,1.27-1.49,1.26-2.39C89,24.76,89.14,24.63,89.09,24.42Zm-2-3.92a7,7,0,0,1-2,2.44c-.58.51-1.88,2.41-.82,3C83.62,23.75,89.1,21.76,87.13,20.5Zm4.93-6.65a3.48,3.48,0,0,1-.76,1Zm-.51,5.71a19.53,19.53,0,0,1,2.16-3.43c.54-.85,1.67-1.18,1.88-2.27l-.19-.22v.13a7,7,0,0,1-.88.37s0,0,0-.05l0,.07a1,1,0,0,0-.46.41l-.15.31a10,10,0,0,0-2.07,3c-.32.67-.44,1.42-.76,2.09C91.18,19.88,91.47,19.76,91.55,19.56Z"/><path class="cls-2" d="M98.49,13.89c.24-.37.48-.73.74-1.08s.33-.62.48-.94c.84-1.42,2.33-2.48,3.44-3.75a2.3,2.3,0,0,0-.59-.66C101,8.4,100,10,98.48,11.06c0,0,0,0,0,0-.2,1-1.28,1.63-1.69,2.63s-1,1.86-1.37,2.87A31.65,31.65,0,0,1,98.49,13.89Z"/><path class="cls-2" d="M93,24.8l.74-.89a21.52,21.52,0,0,0,1.69-2.62c-.51.51-1,1-1.57,1.47A5.9,5.9,0,0,0,93,24.8Z"/><path class="cls-2" d="M95.82,20.55l-.4.74c.75-.75,1.46-1.53,2.17-2.31,1-1.43,2.12-2.82,3.08-4.33a5.92,5.92,0,0,1,.35-.48c-2.49,2-5,4-6.22,6.73l-.07.16c.93-.9,1.8-1.84,2.67-2.8C96.86,19,96.32,19.76,95.82,20.55Z"/><path class="cls-2" d="M98.26,14.24l.22-.17.18-.29-.17.11Z"/><path class="cls-2" d="M94.51,14.14l0,0-.61.72a8.94,8.94,0,0,1-.73,1.22A6.71,6.71,0,0,0,94.51,14.14Z"/><path class="cls-2" d="M91,14.13l-.3.25c0,.09,0,.17,0,.25l.21-.16Z"/><path class="cls-2" d="M87.66,19.07c1-1.41,2-2.77,3-4.12l0-.32a5.72,5.72,0,0,0-2,2.5c-.08.21-.11.62-.25.75a13.21,13.21,0,0,0-1.57,2.26c.27-.34.53-.68.79-1Z"/></g></g></svg>